<?xml version="1.0" standalone="no"?>
<!DOCTYPE svg PUBLIC "-//W3C//DTD SVG 20010904//EN"
 "http://www.w3.org/TR/2001/REC-SVG-20010904/DTD/svg10.dtd">
<svg version="1.0" xmlns="http://www.w3.org/2000/svg"
 width="1400.000000pt" height="1400.000000pt" viewBox="0 0 1400.000000 1400.000000"
 preserveAspectRatio="xMidYMid meet">

<g transform="translate(0.000000,1400.000000) scale(0.100000,-0.100000)"
fill="#000000" stroke="none">
<path d="M6381 13357 c-74 -210 -183 -521 -241 -690 -59 -169 -111 -312 -117
-318 -8 -8 -18 -7 -35 3 -31 17 -1231 826 -1320 890 -68 48 -98 59 -98 36 0
-20 135 -859 174 -1088 20 -112 32 -208 28 -212 -5 -5 -62 33 -128 83 -148
114 -393 276 -544 362 -189 107 -341 180 -352 169 -7 -7 8 -32 39 -73 210
-270 422 -682 604 -1174 33 -88 64 -164 69 -169 6 -6 77 25 187 81 685 349
1423 568 2183 648 701 73 1474 19 2144 -150 77 -19 143 -32 147 -28 4 5 22
109 39 233 17 124 42 284 56 355 56 291 156 628 243 823 23 49 41 95 41 102 0
15 -39 -13 -165 -118 -226 -189 -424 -389 -616 -624 -77 -95 -89 -106 -94 -86
-3 13 -25 311 -50 663 -26 368 -50 644 -56 650 -7 7 -33 -15 -84 -70 -408
-445 -1084 -1160 -1095 -1160 -8 0 -27 18 -43 40 -31 42 -295 454 -594 928
-97 152 -179 277 -182 277 -3 0 -66 -172 -140 -383z"/>
<path d="M7105 11573 c-608 -40 -1195 -164 -1745 -370 -183 -68 -495 -201
-536 -228 -31 -20 -31 -35 0 -35 47 0 201 -52 285 -96 173 -89 324 -252 430
-461 17 -34 27 -64 23 -67 -4 -2 -43 18 -86 45 -98 60 -201 104 -325 136 -123
33 -310 37 -411 10 -124 -33 -207 -82 -300 -176 -149 -150 -207 -305 -217
-577 -10 -269 35 -466 181 -786 15 -34 21 -58 15 -58 -30 0 -134 73 -217 154
-238 230 -354 538 -339 900 6 157 23 245 71 389 18 53 31 97 27 97 -15 0 -86
-51 -218 -156 -484 -386 -885 -815 -1212 -1299 -200 -295 -393 -637 -372 -658
9 -9 392 -73 545 -91 65 -8 64 -18 -11 -108 -242 -290 -485 -692 -676 -1119
-246 -547 -437 -1204 -454 -1561 -5 -106 -4 -118 11 -118 9 0 132 35 274 79
570 175 704 213 712 205 5 -5 -2 -49 -16 -99 -94 -348 -121 -1214 -59 -1835
41 -397 125 -817 224 -1118 76 -228 206 -503 242 -510 8 -1 71 43 140 99 490
399 967 935 1434 1609 58 85 108 157 110 158 20 20 122 -380 169 -663 52 -309
61 -425 60 -805 0 -269 -4 -396 -17 -525 -33 -313 -82 -635 -152 -990 -40
-205 -42 -236 -17 -257 26 -24 228 -123 362 -178 287 -117 671 -220 935 -250
114 -13 982 -13 1135 0 229 19 625 106 910 200 425 141 858 350 1168 563 62
43 75 48 86 36 7 -8 50 -158 95 -334 101 -394 98 -385 120 -385 20 0 172 102
339 228 270 203 580 497 788 747 525 632 833 1329 974 2205 11 69 20 144 20
166 0 88 12 80 246 -175 120 -131 225 -242 233 -245 8 -4 18 -3 22 1 25 25
177 584 228 838 74 370 96 613 95 1050 0 309 -3 386 -22 544 -95 778 -348
1508 -776 2240 -149 254 -402 634 -419 628 -7 -2 -20 -61 -32 -147 -11 -79
-25 -145 -31 -147 -11 -4 -408 408 -427 442 -7 12 9 32 67 87 85 79 86 84 61
183 -31 120 -128 279 -192 313 -21 12 -33 11 -76 -3 -91 -29 -190 -88 -258
-152 -37 -35 -72 -63 -79 -63 -6 0 -51 29 -98 65 -48 36 -149 97 -225 135
-172 87 -213 92 -148 18 72 -83 176 -229 226 -317 83 -147 133 -201 339 -368
229 -185 413 -350 501 -448 73 -81 82 -104 33 -79 -169 88 -517 135 -841 115
-223 -14 -336 -33 -477 -83 -179 -62 -143 -76 -332 129 -91 98 -274 285 -408
416 -242 237 -243 238 -251 290 -20 121 49 324 141 416 68 68 18 79 -133 31
-97 -31 -220 -98 -301 -164 l-46 -38 -94 61 c-137 89 -299 171 -483 245 -197
80 -255 96 -353 96 -94 0 -257 -52 -435 -140 -175 -85 -452 -275 -442 -303 11
-35 335 -204 487 -254 187 -62 226 -66 570 -69 489 -5 507 -10 765 -246 263
-239 646 -630 632 -644 -2 -3 -57 9 -122 26 -304 81 -510 97 -1070 81 -554
-16 -720 -4 -934 68 -232 78 -448 227 -593 410 -100 126 -162 270 -188 436 -7
44 -18 85 -24 91 -8 9 -397 74 -438 74 -51 0 152 209 337 348 124 93 256 168
381 218 112 44 119 48 119 67 0 8 -53 58 -117 111 -77 64 -115 102 -112 111 7
18 148 123 274 204 196 127 527 279 781 360 131 41 346 94 513 127 194 37 228
33 381 -46 268 -139 561 -315 858 -516 92 -63 174 -114 182 -114 41 0 122 214
156 411 12 68 25 128 30 133 17 19 291 -119 537 -271 332 -205 637 -434 920
-693 68 -61 126 -109 129 -106 3 3 -22 67 -55 143 -162 369 -235 602 -273 863
-6 47 -18 94 -26 106 -7 11 -55 55 -106 97 -325 267 -677 457 -1139 616 -218
74 -472 145 -492 138 -12 -5 -9 -20 20 -92 44 -109 81 -255 98 -381 17 -135 9
-142 -67 -57 -178 201 -413 408 -607 536 -172 113 -177 115 -347 127 -134 9
-656 11 -778 3z m2394 -4067 c164 -109 300 -184 436 -241 61 -25 121 -51 135
-58 l25 -13 3 -381 2 -382 -156 -123 c-490 -387 -906 -630 -1229 -716 -96 -26
-255 -43 -310 -34 -33 6 -45 15 -68 52 -73 116 -608 1114 -605 1128 4 21 175
150 363 276 317 210 612 367 890 471 89 33 341 104 374 105 7 0 70 -38 140
-84z m1611 31 c0 -2 18 -51 39 -108 172 -456 223 -946 141 -1346 -34 -164
-125 -401 -157 -411 -7 -2 -29 29 -49 70 -78 156 -184 301 -355 486 -63 68
-127 143 -142 166 l-28 43 -3 354 c-2 195 1 364 5 376 5 12 28 34 51 49 152
96 305 201 377 258 47 36 93 66 103 66 10 0 18 -1 18 -3z m-570 -1894 c33 -22
40 -32 112 -138 72 -108 136 -239 178 -364 l31 -92 -31 -114 c-97 -367 -247
-642 -470 -866 -133 -134 -222 -204 -246 -195 -14 5 -16 16 -11 56 17 140 -55
688 -97 746 -12 16 -19 13 -92 -46 -116 -93 -229 -164 -369 -231 -136 -65
-413 -162 -448 -157 -18 2 -59 70 -209 343 -103 187 -187 348 -188 357 0 23 6
26 100 44 158 30 343 107 540 226 153 92 332 213 444 299 197 150 157 133 329
140 322 12 401 10 427 -8z"/>
</g>
</svg>
